<svg xmlns="http://www.w3.org/2000/svg" viewBox="0 0 1440 900" width="1440" height="900">
<defs>
<style>
@import url('https://fonts.googleapis.com/css2?family=Syne:wght@400;600;700;800&amp;family=DM+Sans:wght@300;400;500;600&amp;family=JetBrains+Mono:wght@400;500&amp;display=swap');
text{font-family:'DM Sans',sans-serif}
.syne{font-family:'Syne',sans-serif}
.mono{font-family:'JetBrains Mono',monospace}
.t-primary{fill:#E2E2EA}.t-secondary{fill:#7A7A96}.t-muted{fill:#44445A}
.t-accent{fill:#00FFB2}.t-warm{fill:#FFC078}.t-hot{fill:#FF6B6B}.t-purple{fill:#6C5CE7}
@keyframes pulse{0%,100%{opacity:1}50%{opacity:.4}}
.pulse{animation:pulse 2s ease-in-out infinite}
</style>
<linearGradient id="g1" x1="0" y1="0" x2="1440" y2="900" gradientUnits="userSpaceOnUse">
<stop offset="0%" stop-color="#07070D"/><stop offset="100%" stop-color="#0D0D1A"/>
</linearGradient>
<linearGradient id="accent-g" x1="0%" y1="0%" x2="100%" y2="0%">
<stop offset="0%" stop-color="#00FFB2"/><stop offset="100%" stop-color="#6C5CE7"/>
</linearGradient>
<linearGradient id="card-g" x1="0%" y1="0%" x2="0%" y2="100%">
<stop offset="0%" stop-color="#1A1A2E"/><stop offset="100%" stop-color="#12121F"/>
</linearGradient>
<filter id="shadow"><feDropShadow dx="0" dy="4" stdDeviation="12" flood-color="#000" flood-opacity=".4"/></filter>
<filter id="blur1"><feGaussianBlur stdDeviation="60"/></filter>
<pattern id="grid" width="40" height="40" patternUnits="userSpaceOnUse">
<path d="M40 0V40H0" fill="none" stroke="#1A1A2E" stroke-width=".5"/>
</pattern>
</defs>

<!-- BG -->
<rect width="1440" height="900" fill="url(#g1)"/>
<rect width="1440" height="900" fill="url(#grid)" opacity=".3"/>
<circle cx="400" cy="300" r="200" fill="#FF6B6B" opacity=".02" filter="url(#blur1)"/>
<circle cx="1100" cy="500" r="250" fill="#6C5CE7" opacity=".03" filter="url(#blur1)"/>

<!-- ═══ TOP BAR ═══ -->
<rect x="0" y="0" width="1440" height="64" fill="#0A0A14" opacity=".9"/>
<line x1="0" y1="64" x2="1440" y2="64" stroke="#1E1E32" stroke-width="1"/>
<rect x="24" y="16" width="8" height="32" rx="2" fill="#00FFB2"/>
<rect x="36" y="22" width="8" height="20" rx="2" fill="#00FFB2" opacity=".6"/>
<rect x="48" y="28" width="8" height="8" rx="2" fill="#00FFB2" opacity=".3"/>
<text x="68" y="40" class="syne t-primary" font-size="18" font-weight="800" letter-spacing="3">AUTOPILOT</text>
<circle cx="210" cy="32" r="4" fill="#00FFB2" class="pulse"/>
<text x="222" y="37" class="mono t-accent" font-size="11">SYSTEM ACTIVE</text>

<!-- Back breadcrumb -->
<text x="340" y="38" class="t-muted" font-size="13">← Dashboard</text>
<text x="430" y="38" class="t-muted" font-size="13">/</text>
<text x="445" y="38" class="t-primary" font-size="13" font-weight="500">Sarah Chen</text>

<!-- Top right -->
<circle cx="1370" cy="32" r="16" fill="#6C5CE7"/>
<text x="1363" y="38" fill="#fff" class="syne" font-size="14" font-weight="700">A</text>

<!-- ═══ LEFT COLUMN — Lead Profile ═══ -->
<g transform="translate(40, 88)">
<!-- Profile Card -->
<rect width="400" height="280" rx="16" fill="url(#card-g)" stroke="#2A2A42" stroke-width="1" filter="url(#shadow)"/>
<rect x="0" y="0" width="400" height="6" rx="3" fill="#FF6B6B"/>

<!-- Avatar area -->
<circle cx="60" cy="68" r="32" fill="#FF6B6B" opacity=".12"/>
<text x="46" y="78" font-size="28">🔥</text>
<text x="108" y="58" class="syne t-primary" font-size="22" font-weight="700">Sarah Chen</text>
<rect x="108" y="68" width="44" height="20" rx="10" fill="#FF6B6B" opacity=".15"/>
<text x="117" y="82" class="t-hot mono" font-size="10" font-weight="500">HOT</text>
<text x="162" y="82" class="t-secondary" font-size="12">sarah@example.com</text>

<!-- Info grid -->
<line x1="20" y1="110" x2="380" y2="110" stroke="#1E1E32"/>
<text x="24" y="138" class="t-muted mono" font-size="10" letter-spacing="1">PROJECT</text>
<text x="24" y="158" class="t-primary" font-size="13">Complete rebrand — logo, website, brand guidelines</text>

<text x="24" y="188" class="t-muted mono" font-size="10" letter-spacing="1">BUDGET</text>
<text x="24" y="206" class="t-primary" font-size="14" font-weight="500">$5,000</text>

<text x="200" y="188" class="t-muted mono" font-size="10" letter-spacing="1">TIMELINE</text>
<text x="200" y="206" class="t-primary" font-size="14" font-weight="500">6 weeks</text>

<text x="24" y="236" class="t-muted mono" font-size="10" letter-spacing="1">SOURCE</text>
<text x="24" y="254" class="t-primary" font-size="13">Instagram DM → Website form</text>

<text x="200" y="236" class="t-muted mono" font-size="10" letter-spacing="1">RECEIVED</text>
<text x="200" y="254" class="t-primary" font-size="13">May 6, 2026 · 4:23 PM</text>
</g>

<!-- AI Qualification Card -->
<g transform="translate(40, 388)">
<rect width="400" height="180" rx="16" fill="url(#card-g)" stroke="#2A2A42" stroke-width="1" filter="url(#shadow)"/>
<rect x="20" y="16" width="28" height="28" rx="6" fill="#00FFB2" opacity=".1"/>
<text x="27" y="36" font-size="14">🧠</text>
<text x="58" y="36" class="syne t-primary" font-size="15" font-weight="700">AI Qualification</text>

<text x="24" y="68" class="t-muted mono" font-size="10" letter-spacing="1">REASONING</text>
<text x="24" y="88" class="t-secondary" font-size="12">Clear project scope (rebrand), explicit budget ($5k),</text>
<text x="24" y="104" class="t-secondary" font-size="12">defined timeline (6 weeks), has existing brand to</text>
<text x="24" y="120" class="t-secondary" font-size="12">reference. High-intent buyer ready to start.</text>

<text x="24" y="148" class="t-muted mono" font-size="10" letter-spacing="1">ACTION TAKEN</text>
<text x="24" y="166" class="t-accent" font-size="12" font-weight="500">✓ Calendar link included in acknowledgment</text>
</g>

<!-- Stage Progress -->
<g transform="translate(40, 588)">
<rect width="400" height="160" rx="16" fill="url(#card-g)" stroke="#2A2A42" stroke-width="1" filter="url(#shadow)"/>
<text x="24" y="32" class="syne t-primary" font-size="15" font-weight="700">Pipeline Stage</text>

<!-- Progress nodes -->
<g transform="translate(24, 56)">
<!-- Completed nodes -->
<circle cx="0" cy="16" r="10" fill="#00FFB2"/>
<text x="-3" y="20" fill="#07070D" font-size="10" font-weight="700">✓</text>
<text x="-8" y="44" class="t-muted" font-size="9">New</text>
<line x1="10" y1="16" x2="65" y2="16" stroke="#00FFB2" stroke-width="2"/>

<circle cx="75" cy="16" r="10" fill="#00FFB2"/>
<text x="72" y="20" fill="#07070D" font-size="10" font-weight="700">✓</text>
<text x="57" y="44" class="t-muted" font-size="9">Qualified</text>
<line x1="85" y1="16" x2="140" y2="16" stroke="#00FFB2" stroke-width="2"/>

<!-- Current node -->
<circle cx="150" cy="16" r="12" fill="#00FFB2" opacity=".2" stroke="#00FFB2" stroke-width="2"/>
<circle cx="150" cy="16" r="5" fill="#00FFB2" class="pulse"/>
<text x="130" y="44" class="t-accent" font-size="9" font-weight="600">Ack Sent</text>
<line x1="162" y1="16" x2="217" y2="16" stroke="#2A2A42" stroke-width="2" stroke-dasharray="4,4"/>

<!-- Future nodes -->
<circle cx="227" cy="16" r="10" fill="#1E1E32" stroke="#2A2A42" stroke-width="2"/>
<text x="218" y="44" class="t-muted" font-size="9">Call</text>
<line x1="237" y1="16" x2="282" y2="16" stroke="#2A2A42" stroke-width="2" stroke-dasharray="4,4"/>

<circle cx="292" cy="16" r="10" fill="#1E1E32" stroke="#2A2A42" stroke-width="2"/>
<text x="275" y="44" class="t-muted" font-size="9">Proposal</text>
<line x1="302" y1="16" x2="340" y2="16" stroke="#2A2A42" stroke-width="2" stroke-dasharray="4,4"/>

<circle cx="350" cy="16" r="10" fill="#1E1E32" stroke="#2A2A42" stroke-width="2"/>
<text x="340" y="44" class="t-muted" font-size="9">Won</text>
</g>

<!-- Next action -->
<line x1="20" y1="118" x2="380" y2="118" stroke="#1E1E32"/>
<text x="24" y="142" class="t-muted" font-size="11">Next: </text>
<text x="60" y="142" class="t-secondary" font-size="11">Follow-up #1 fires in </text>
<text x="210" y="142" class="mono t-accent" font-size="12" font-weight="500">46h 12m</text>
</g>

<!-- ═══ RIGHT COLUMN — Email Timeline ═══ -->
<g transform="translate(480, 88)">
<rect width="920" height="688" rx="16" fill="url(#card-g)" stroke="#2A2A42" stroke-width="1" filter="url(#shadow)"/>
<text x="28" y="36" class="syne t-primary" font-size="18" font-weight="700">Communication Timeline</text>
<text x="760" y="36" class="mono t-muted" font-size="11">1 of 1 emails sent</text>

<!-- Timeline line -->
<line x1="48" y1="60" x2="48" y2="650" stroke="#1E1E32" stroke-width="2"/>

<!-- Email 1: AI Acknowledgment (sent) -->
<g transform="translate(28, 70)">
<circle cx="20" cy="20" r="12" fill="#00FFB2" opacity=".15" stroke="#00FFB2" stroke-width="2"/>
<circle cx="20" cy="20" r="5" fill="#00FFB2"/>
<text x="48" y="16" class="t-muted mono" font-size="10">May 6, 4:24 PM · AI-GENERATED · SENT</text>

<!-- Email card -->
<rect x="48" y="26" width="830" height="220" rx="10" fill="#0F0F1A" stroke="#2A2A42" stroke-width="1"/>
<text x="68" y="52" class="t-accent mono" font-size="11" font-weight="500">ACKNOWLEDGMENT EMAIL</text>
<line x1="60" y1="62" x2="866" y2="62" stroke="#1E1E32"/>

<text x="68" y="84" class="t-muted" font-size="11">Subject:</text>
<text x="120" y="84" class="t-primary" font-size="12" font-weight="500">Excited about your rebrand project, Sarah!</text>

<text x="68" y="112" class="t-secondary" font-size="12" xml:space="preserve">Hi Sarah,</text>
<text x="68" y="132" class="t-secondary" font-size="12">Thanks for reaching out about your rebrand! A complete identity</text>
<text x="68" y="148" class="t-secondary" font-size="12">overhaul — logo, website, and guidelines — is exactly the kind of</text>
<text x="68" y="164" class="t-secondary" font-size="12">project I love diving into. Six weeks is a comfortable runway for</text>
<text x="68" y="180" class="t-secondary" font-size="12">something this comprehensive.</text>

<text x="68" y="204" class="t-secondary" font-size="12">I'd love to hear more about what's driving the rebrand. Let's hop</text>
<text x="68" y="220" class="t-secondary" font-size="12">on a quick call: </text>
<text x="188" y="220" class="t-accent" font-size="12" text-decoration="underline">calendly.com/alex-studio/30min</text>
<text x="68" y="240" class="t-secondary" font-size="12">— Alex</text>
</g>

<!-- Email 2: Follow-up #1 (scheduled) -->
<g transform="translate(28, 320)">
<circle cx="20" cy="20" r="12" fill="#1E1E32" stroke="#FFC078" stroke-width="2" stroke-dasharray="3,3"/>
<text x="48" y="16" class="t-muted mono" font-size="10">May 8, 9:00 AM · AI-GENERATED · SCHEDULED</text>

<rect x="48" y="26" width="830" height="72" rx="10" fill="#0F0F1A" stroke="#2A2A42" stroke-width="1" stroke-dasharray="4,4"/>
<text x="68" y="52" class="t-warm mono" font-size="11" font-weight="500">FOLLOW-UP #1</text>
<text x="220" y="52" class="t-muted" font-size="11">— will be AI-written at send time</text>
<text x="68" y="76" class="t-muted" font-size="12">Adds value with a project insight. Not "just checking in."</text>
<rect x="750" y="44" width="110" height="28" rx="6" fill="#FFC078" opacity=".08" stroke="#FFC078" stroke-width="1" stroke-opacity=".3"/>
<text x="768" y="63" class="t-warm mono" font-size="10">in 46h 12m</text>
</g>

<!-- Email 3: Follow-up #2 (future) -->
<g transform="translate(28, 420)">
<circle cx="20" cy="20" r="12" fill="#1E1E32" stroke="#44445A" stroke-width="2" stroke-dasharray="3,3"/>
<text x="48" y="16" class="t-muted mono" font-size="10">May 11, 9:00 AM · PLANNED</text>

<rect x="48" y="26" width="830" height="72" rx="10" fill="#0F0F1A" stroke="#1E1E32" stroke-width="1" stroke-dasharray="4,4" opacity=".6"/>
<text x="68" y="52" class="t-muted mono" font-size="11" font-weight="500">FOLLOW-UP #2 (FINAL)</text>
<text x="68" y="76" class="t-muted" font-size="12">Warm last touch. No pressure. Then flags for human review.</text>
</g>

<!-- Post-booking flow (grayed) -->
<g transform="translate(28, 520)" opacity=".4">
<circle cx="20" cy="20" r="12" fill="#1E1E32" stroke="#44445A" stroke-width="1"/>
<text x="48" y="16" class="t-muted mono" font-size="10">AFTER CALL</text>
<rect x="48" y="26" width="830" height="48" rx="10" fill="#0F0F1A" stroke="#1E1E32" stroke-width="1"/>
<text x="68" y="56" class="t-muted" font-size="12">📄 AI Proposal → Proposal Follow-up #1 → Follow-up #2 → Human Review</text>
</g>

<g transform="translate(28, 596)" opacity=".3">
<circle cx="20" cy="20" r="12" fill="#1E1E32" stroke="#44445A" stroke-width="1"/>
<text x="48" y="16" class="t-muted mono" font-size="10">AFTER SIGNING</text>
<rect x="48" y="26" width="830" height="48" rx="10" fill="#0F0F1A" stroke="#1E1E32" stroke-width="1"/>
<text x="68" y="56" class="t-muted" font-size="12">🎉 Welcome Email → Intake Form → First-Week Schedule</text>
</g>
</g>

<!-- ═══ BOTTOM ACTIONS BAR ═══ -->
<g transform="translate(40, 796)">
<rect x="0" y="0" width="192" height="48" rx="10" fill="#00FFB2" opacity=".1" stroke="#00FFB2" stroke-width="1" stroke-opacity=".4"/>
<text x="20" y="30" class="t-accent" font-size="13" font-weight="500">📅 Mark Call Booked</text>

<rect x="212" y="0" width="192" height="48" rx="10" fill="#6C5CE7" opacity=".1" stroke="#6C5CE7" stroke-width="1" stroke-opacity=".4"/>
<text x="232" y="30" class="t-purple" font-size="13" font-weight="500">📝 Submit Post-Call</text>

<rect x="424" y="0" width="192" height="48" rx="10" fill="#1E1E32" stroke="#2A2A42" stroke-width="1"/>
<text x="444" y="30" class="t-secondary" font-size="13" font-weight="500">🗄️ Archive Lead</text>
</g>

<!-- Accent bottom line -->
<rect x="0" y="896" width="1440" height="4" fill="url(#accent-g)"/>
</svg>
